<?xml version="1.0" standalone="no"?>
<!DOCTYPE svg PUBLIC "-//W3C//DTD SVG 20010904//EN"
 "http://www.w3.org/TR/2001/REC-SVG-20010904/DTD/svg10.dtd">
<svg version="1.0" xmlns="http://www.w3.org/2000/svg"
 width="256.000000pt" height="256.000000pt" viewBox="0 0 256.000000 256.000000"
 preserveAspectRatio="xMidYMid meet">
<metadata>
Created by potrace 1.14, written by Peter Selinger 2001-2017
</metadata>
<g transform="translate(0.000000,256.000000) scale(0.100000,-0.100000)"
fill="#000000" stroke="none">
<path d="M340 2513 c-71 -106 -75 -122 -6 -26 24 34 42 50 51 46 8 -3 15 -8
15 -12 0 -5 17 -20 37 -34 33 -24 35 -27 15 -27 -17 0 -36 -21 -83 -92 -150
-228 -233 -454 -255 -691 -4 -42 -9 -77 -11 -77 -3 0 -16 9 -30 20 -14 11 -30
17 -36 13 -7 -4 -8 15 -3 58 4 35 9 84 11 109 l4 45 -11 -40 c-7 -24 -12 -116
-12 -225 0 -204 15 -298 76 -489 49 -153 177 -409 197 -396 5 2 15 -3 22 -12
8 -9 57 -49 109 -89 52 -40 127 -100 165 -134 39 -33 135 -106 215 -161 289
-200 325 -231 201 -178 -24 11 -46 17 -48 15 -6 -6 132 -61 228 -91 l87 -27
123 42 c242 80 459 207 627 366 86 80 192 205 237 279 29 46 13 28 -53 -61
-85 -115 -182 -216 -286 -296 l-89 -69 -26 25 c-14 14 -23 27 -20 29 256 192
393 354 510 603 47 101 51 106 68 90 10 -9 23 -16 29 -16 15 0 -15 -79 -74
-190 -25 -47 -37 -76 -29 -65 31 38 123 240 154 336 66 210 98 485 72 634
l-10 60 4 -65 c3 -36 1 -60 -3 -54 -4 5 -23 22 -43 37 -32 24 -38 36 -54 110
-10 45 -37 140 -60 210 -24 70 -38 124 -32 119 7 -4 30 -23 53 -40 23 -17 44
-29 47 -26 3 3 14 -19 26 -48 29 -77 26 -42 -5 44 -38 106 -125 277 -196 385
-53 79 -66 93 -83 88 -69 -22 -182 -46 -255 -53 -47 -5 -71 -10 -54 -11 20 -1
44 -12 63 -30 l32 -30 -38 -8 c-21 -4 -113 -8 -204 -8 l-166 0 -54 41 c-30 22
-61 43 -69 47 -8 3 12 4 45 1 l60 -4 -75 15 c-41 8 -97 21 -123 29 -45 14 -55
13 -143 -10 -144 -36 -335 -50 -496 -36 -114 10 -254 36 -308 56 -10 4 -24 -7
-40 -31z m930 -693 l0 -530 -519 0 -519 0 -5 23 c-17 64 -29 222 -23 299 15
225 104 484 201 584 26 27 44 40 41 30 -6 -16 -4 -17 9 -6 23 19 26 9 11 -33
-7 -22 -11 -69 -9 -115 4 -98 5 -102 14 -102 5 0 5 -8 2 -17 -6 -16 -5 -17 12
-3 17 14 18 13 11 -13 -18 -72 -36 -231 -36 -315 l0 -94 109 104 c60 57 204
193 320 303 l211 200 -65 33 c-36 18 -65 37 -65 43 0 5 -4 7 -10 4 -17 -10
-11 11 8 28 19 17 64 33 187 67 44 12 87 26 95 30 8 5 16 9 18 9 1 1 2 -237 2
-529z m1012 -547 c-15 -6 -45 -65 -81 -163 -46 -124 -113 -251 -159 -299 -36
-39 -42 -42 -36 -21 5 20 -7 13 -58 -37 -60 -60 -97 -84 -67 -46 16 22 -27
-14 -100 -82 l-54 -50 30 45 c33 48 71 121 97 185 16 39 16 38 -61 -36 -43
-41 -173 -166 -290 -278 -117 -112 -214 -213 -216 -225 -2 -11 -5 212 -6 497
l-1 517 508 -1 c279 0 501 -3 494 -6z m-572 -736 c0 -2 -10 -12 -22 -23 l-23
-19 19 23 c18 21 26 27 26 19z"/>
<path d="M1553 2483 c15 -2 37 -2 50 0 12 2 0 4 -28 4 -27 0 -38 -2 -22 -4z"/>
<path d="M1717 2473 c18 -2 50 -2 70 0 21 2 7 4 -32 4 -38 0 -55 -2 -38 -4z"/>
<path d="M258 2388 c-22 -34 -52 -95 -41 -83 13 14 65 105 60 105 -3 0 -11
-10 -19 -22z"/>
<path d="M166 2212 c-32 -65 -86 -207 -86 -225 0 -7 18 33 39 88 21 55 48 120
60 143 12 24 21 46 19 48 -2 2 -17 -22 -32 -54z"/>
<path d="M65 1940 c-4 -17 -5 -34 -2 -36 2 -3 7 10 11 27 8 42 0 50 -9 9z"/>
<path d="M2472 1960 c0 -8 4 -26 8 -40 6 -20 8 -21 8 -5 0 11 -3 29 -8 40 -5
12 -8 14 -8 5z"/>
<path d="M52 1870 c0 -14 2 -19 5 -12 2 6 2 18 0 25 -3 6 -5 1 -5 -13z"/>
<path d="M2491 1874 c0 -11 3 -14 6 -6 3 7 2 16 -1 19 -3 4 -6 -2 -5 -13z"/>
<path d="M2502 1820 c0 -14 2 -19 5 -12 2 6 2 18 0 25 -3 6 -5 1 -5 -13z"/>
<path d="M300 686 c0 -17 132 -175 201 -241 71 -67 70 -67 -12 20 -47 50 -107
119 -133 155 -55 75 -56 76 -56 66z"/>
<path d="M593 363 c18 -20 107 -87 107 -80 0 2 -28 25 -62 52 -35 26 -55 39
-45 28z"/>
<path d="M740 256 c0 -3 9 -10 20 -16 11 -6 20 -8 20 -6 0 3 -9 10 -20 16 -11
6 -20 8 -20 6z"/>
<path d="M790 226 c0 -3 9 -10 20 -16 11 -6 20 -8 20 -6 0 3 -9 10 -20 16 -11
6 -20 8 -20 6z"/>
<path d="M880 175 c0 -7 61 -37 66 -33 2 3 -12 12 -31 21 -19 9 -35 15 -35 12z"/>
</g>
</svg>
