<?xml version="1.0" encoding="UTF-8"?>
<!DOCTYPE svg PUBLIC "-//W3C//DTD SVG 1.1//EN" "http://www.w3.org/Graphics/SVG/1.1/DTD/svg11.dtd">
<svg xmlns="http://www.w3.org/2000/svg" version="1.1" width="117px" height="180px" style="shape-rendering:geometricPrecision; text-rendering:geometricPrecision; image-rendering:optimizeQuality; fill-rule:evenodd; clip-rule:evenodd" xmlns:xlink="http://www.w3.org/1999/xlink">
<g><path style="opacity:0.955" fill="#fe0000" d="M -0.5,-0.5 C 0.5,-0.5 1.5,-0.5 2.5,-0.5C 21.0189,10.0134 39.5189,20.6801 58,31.5C 76.977,20.9326 95.8103,10.2659 114.5,-0.5C 115.167,-0.5 115.833,-0.5 116.5,-0.5C 116.5,12.8333 116.5,26.1667 116.5,39.5C 97.4782,50.6787 78.1449,61.3454 58.5,71.5C 38.6835,61.0921 19.0168,50.4254 -0.5,39.5C -0.5,26.1667 -0.5,12.8333 -0.5,-0.5 Z"/></g>
<g><path style="opacity:0.966" fill="#fe0000" d="M -0.5,53.5 C 19.4637,63.2335 38.9637,73.9002 58,85.5C 77.3138,74.4277 96.8138,63.761 116.5,53.5C 116.5,66.8333 116.5,80.1667 116.5,93.5C 97.4782,104.679 78.1449,115.345 58.5,125.5C 38.6835,115.092 19.0168,104.425 -0.5,93.5C -0.5,80.1667 -0.5,66.8333 -0.5,53.5 Z"/></g>
<g><path style="opacity:0.955" fill="#fe0000" d="M -0.5,107.5 C 19.4637,117.234 38.9637,127.9 58,139.5C 77.3138,128.428 96.8138,117.761 116.5,107.5C 116.5,120.833 116.5,134.167 116.5,147.5C 97.7981,158.182 79.1314,168.849 60.5,179.5C 59.1667,179.5 57.8333,179.5 56.5,179.5C 37.6969,168.595 18.6969,157.929 -0.5,147.5C -0.5,134.167 -0.5,120.833 -0.5,107.5 Z"/></g>
<style>.002cd47613a4af4176979dcfd43baed7{height:57px}</style>
</svg>
