<?xml version="1.0" encoding="UTF-8"?>
<!DOCTYPE svg PUBLIC "-//W3C//DTD SVG 1.1//EN" "http://www.w3.org/Graphics/SVG/1.1/DTD/svg11.dtd">
<svg xmlns="http://www.w3.org/2000/svg" version="1.1" width="117px" height="180px" style="shape-rendering:geometricPrecision; text-rendering:geometricPrecision; image-rendering:optimizeQuality; fill-rule:evenodd; clip-rule:evenodd" xmlns:xlink="http://www.w3.org/1999/xlink">
<g><path style="opacity:0.955" fill="#00d571" d="M 56.5,-0.5 C 57.8333,-0.5 59.1667,-0.5 60.5,-0.5C 79.1314,10.1514 97.7981,20.8181 116.5,31.5C 116.5,44.8333 116.5,58.1667 116.5,71.5C 96.8138,61.239 77.3138,50.5723 58,39.5C 38.9637,51.0998 19.4637,61.7665 -0.5,71.5C -0.5,58.1667 -0.5,44.8333 -0.5,31.5C 18.6969,21.0712 37.6969,10.4045 56.5,-0.5 Z"/></g>
<g><path style="opacity:0.966" fill="#00d571" d="M 116.5,85.5 C 116.5,98.8333 116.5,112.167 116.5,125.5C 96.8138,115.239 77.3138,104.572 58,93.5C 38.9637,105.1 19.4637,115.766 -0.5,125.5C -0.5,112.167 -0.5,98.8333 -0.5,85.5C 19.0168,74.5746 38.6835,63.9079 58.5,53.5C 78.1449,63.6546 97.4782,74.3213 116.5,85.5 Z"/></g>
<g><path style="opacity:0.955" fill="#00d571" d="M 116.5,139.5 C 116.5,152.833 116.5,166.167 116.5,179.5C 115.833,179.5 115.167,179.5 114.5,179.5C 95.8103,168.734 76.977,158.067 58,147.5C 39.5189,158.32 21.0189,168.987 2.5,179.5C 1.5,179.5 0.5,179.5 -0.5,179.5C -0.5,166.167 -0.5,152.833 -0.5,139.5C 19.0168,128.575 38.6835,117.908 58.5,107.5C 78.1449,117.655 97.4782,128.321 116.5,139.5 Z"/></g>
<style>.002cd47613a4af4176979dcfd43baed7{height:11px}</style>
</svg>
